<?xml version="1.0" encoding="UTF-8"?>
<!DOCTYPE svg PUBLIC "-//W3C//DTD SVG 1.1//EN" "http://www.w3.org/Graphics/SVG/1.1/DTD/svg11.dtd">
<svg xmlns="http://www.w3.org/2000/svg" version="1.1" width="640px" height="1334px" style="shape-rendering:geometricPrecision; text-rendering:geometricPrecision; image-rendering:optimizeQuality; fill-rule:evenodd; clip-rule:evenodd" xmlns:xlink="http://www.w3.org/1999/xlink">
<g><path style="opacity:1" fill="#fef3eb" d="M -0.5,-0.5 C 122.5,-0.5 245.5,-0.5 368.5,-0.5C 364.635,1.44825 363.635,4.44825 365.5,8.5C 367.922,10.6502 370.589,10.9835 373.5,9.5C 376.538,5.35516 375.871,2.02183 371.5,-0.5C 388.167,-0.5 404.833,-0.5 421.5,-0.5C 417.322,1.86714 416.489,5.20048 419,9.5C 424.007,11.7578 427.173,10.2578 428.5,5C 427.704,2.7145 426.371,0.88117 424.5,-0.5C 440.833,-0.5 457.167,-0.5 473.5,-0.5C 470.76,1.90027 469.927,4.90027 471,8.5C 475.765,11.7916 479.265,10.7916 481.5,5.5C 481.195,2.20666 479.529,0.206664 476.5,-0.5C 493.167,-0.5 509.833,-0.5 526.5,-0.5C 523.229,2.3632 522.729,5.69654 525,9.5C 532.415,11.4185 535.082,8.75179 533,1.5C 531.698,0.915201 530.531,0.248534 529.5,-0.5C 546.167,-0.5 562.833,-0.5 579.5,-0.5C 575.126,2.67475 574.793,6.17475 578.5,10C 585,11.5 587.5,9 586,2.5C 584.855,1.36362 583.688,0.363622 582.5,-0.5C 599.167,-0.5 615.833,-0.5 632.5,-0.5C 628.748,1.67488 627.915,4.67488 630,8.5C 633.624,11.3639 636.791,11.0306 639.5,7.5C 639.5,21.8333 639.5,36.1667 639.5,50.5C 634.632,46.0674 630.965,46.9007 628.5,53C 630.602,58.8018 634.269,59.9685 639.5,56.5C 639.5,70.5 639.5,84.5 639.5,98.5C 630.356,94.1536 627.356,96.6536 630.5,106C 634.282,107.221 637.282,106.387 639.5,103.5C 639.5,118.167 639.5,132.833 639.5,147.5C 637.638,144.67 634.971,143.837 631.5,145C 628.075,147.285 627.575,150.118 630,153.5C 633.893,156.257 637.06,155.591 639.5,151.5C 639.5,166.167 639.5,180.833 639.5,195.5C 635.19,191.128 631.524,191.628 628.5,197C 630.434,203.898 634.101,205.065 639.5,200.5C 639.5,214.833 639.5,229.167 639.5,243.5C 637.484,240.856 634.817,240.023 631.5,241C 627.5,244.333 627.5,247.667 631.5,251C 634.817,251.977 637.484,251.144 639.5,248.5C 639.5,408.833 639.5,569.167 639.5,729.5C 536.833,729.667 434.166,729.5 331.5,729C 324.364,712.84 312.364,707.507 295.5,713C 279.685,723.096 276.518,736.262 286,752.5C 299.667,765.833 313.333,765.833 327,752.5C 328.973,749.383 330.807,746.216 332.5,743C 434.833,742.5 537.166,742.333 639.5,742.5C 639.5,939.5 639.5,1136.5 639.5,1333.5C 512.5,1333.5 385.5,1333.5 258.5,1333.5C 261.458,1331.05 262.125,1328.05 260.5,1324.5C 255.716,1321.39 252.383,1322.55 250.5,1328C 251.036,1330.51 252.369,1332.34 254.5,1333.5C 238.833,1333.5 223.167,1333.5 207.5,1333.5C 213.187,1329.09 212.687,1325.42 206,1322.5C 199.4,1325.44 198.9,1329.11 204.5,1333.5C 188.833,1333.5 173.167,1333.5 157.5,1333.5C 163.163,1328.8 162.496,1325.13 155.5,1322.5C 149.699,1325.17 149.032,1328.84 153.5,1333.5C 138.167,1333.5 122.833,1333.5 107.5,1333.5C 111.968,1328.84 111.301,1325.17 105.5,1322.5C 102.049,1322.79 100.049,1324.62 99.5,1328C 100.036,1330.51 101.369,1332.34 103.5,1333.5C 87.8333,1333.5 72.1667,1333.5 56.5,1333.5C 62.0685,1329.33 61.7352,1325.67 55.5,1322.5C 48.504,1325.13 47.8373,1328.8 53.5,1333.5C 37.8333,1333.5 22.1667,1333.5 6.5,1333.5C 12.0997,1329.11 11.5997,1325.44 5,1322.5C 2.91494,1323.12 1.08161,1324.12 -0.5,1325.5C -0.5,1311.83 -0.5,1298.17 -0.5,1284.5C 4.40679,1289.09 8.07346,1288.25 10.5,1282C 8.03474,1275.9 4.36807,1275.07 -0.5,1279.5C -0.5,1265.83 -0.5,1252.17 -0.5,1238.5C 4.3559,1243.09 8.02257,1242.26 10.5,1236C 7.32342,1229.54 3.65675,1229.04 -0.5,1234.5C -0.5,1220.5 -0.5,1206.5 -0.5,1192.5C 1.36227,1195.33 4.02893,1196.16 7.5,1195C 11.5,1192 11.5,1189 7.5,1186C 4.02893,1184.84 1.36227,1185.67 -0.5,1188.5C -0.5,1174.5 -0.5,1160.5 -0.5,1146.5C 3.76246,1151.81 7.42912,1151.31 10.5,1145C 8.07346,1138.75 4.40679,1137.91 -0.5,1142.5C -0.5,1128.83 -0.5,1115.17 -0.5,1101.5C 4.36807,1105.93 8.03474,1105.1 10.5,1099C 8.07346,1092.75 4.40679,1091.91 -0.5,1096.5C -0.5,1015.17 -0.5,933.833 -0.5,852.5C 24.3061,888.733 58.6394,903.566 102.5,897C 150.114,883.541 175.447,852.041 178.5,802.5C 175.396,756.908 152.396,726.408 109.5,711C 63.0609,700.526 26.3943,714.692 -0.5,753.5C -0.5,587.5 -0.5,421.5 -0.5,255.5C 19.2892,266.711 40.6225,272.044 63.5,271.5C 63.5,259.167 63.5,246.833 63.5,234.5C 46.2579,234.363 30.2579,229.863 15.5,221C 9.98586,216.977 4.65253,212.81 -0.5,208.5C -0.5,166.167 -0.5,123.833 -0.5,81.5C 17.1983,64.1948 38.5316,55.1948 63.5,54.5C 63.5,41.8333 63.5,29.1667 63.5,16.5C 40.649,16.6012 19.3156,22.2679 -0.5,33.5C -0.5,22.1667 -0.5,10.8333 -0.5,-0.5 Z"/></g>
<g><path style="opacity:1" fill="#e5c1a8" d="M 368.5,-0.5 C 369.5,-0.5 370.5,-0.5 371.5,-0.5C 375.871,2.02183 376.538,5.35516 373.5,9.5C 370.589,10.9835 367.922,10.6502 365.5,8.5C 363.635,4.44825 364.635,1.44825 368.5,-0.5 Z"/></g>
<g><path style="opacity:1" fill="#e5c1a8" d="M 421.5,-0.5 C 422.5,-0.5 423.5,-0.5 424.5,-0.5C 426.371,0.88117 427.704,2.7145 428.5,5C 427.173,10.2578 424.007,11.7578 419,9.5C 416.489,5.20048 417.322,1.86714 421.5,-0.5 Z"/></g>
<g><path style="opacity:1" fill="#e5c1a9" d="M 473.5,-0.5 C 474.5,-0.5 475.5,-0.5 476.5,-0.5C 479.529,0.206664 481.195,2.20666 481.5,5.5C 479.265,10.7916 475.765,11.7916 471,8.5C 469.927,4.90027 470.76,1.90027 473.5,-0.5 Z"/></g>
<g><path style="opacity:1" fill="#e5c1a8" d="M 526.5,-0.5 C 527.5,-0.5 528.5,-0.5 529.5,-0.5C 530.531,0.248534 531.698,0.915201 533,1.5C 535.082,8.75179 532.415,11.4185 525,9.5C 522.729,5.69654 523.229,2.3632 526.5,-0.5 Z"/></g>
<g><path style="opacity:1" fill="#e5c1a8" d="M 579.5,-0.5 C 580.5,-0.5 581.5,-0.5 582.5,-0.5C 583.688,0.363622 584.855,1.36362 586,2.5C 587.5,9 585,11.5 578.5,10C 574.793,6.17475 575.126,2.67475 579.5,-0.5 Z"/></g>
<g><path style="opacity:1" fill="#e5c1a8" d="M 632.5,-0.5 C 633.5,-0.5 634.5,-0.5 635.5,-0.5C 637.167,0.5 638.5,1.83333 639.5,3.5C 639.5,4.83333 639.5,6.16667 639.5,7.5C 636.791,11.0306 633.624,11.3639 630,8.5C 627.915,4.67488 628.748,1.67488 632.5,-0.5 Z"/></g>
<g><path style="opacity:1" fill="#f8e9e0" d="M 635.5,-0.5 C 636.833,-0.5 638.167,-0.5 639.5,-0.5C 639.5,0.833333 639.5,2.16667 639.5,3.5C 638.5,1.83333 637.167,0.5 635.5,-0.5 Z"/></g>
<g><path style="opacity:1" fill="#e5c1a7" d="M -0.5,81.5 C -0.5,65.5 -0.5,49.5 -0.5,33.5C 19.3156,22.2679 40.649,16.6012 63.5,16.5C 63.5,29.1667 63.5,41.8333 63.5,54.5C 38.5316,55.1948 17.1983,64.1948 -0.5,81.5 Z"/></g>
<g><path style="opacity:1" fill="#e5c1a7" d="M 345.5,42.5 C 427.665,41.5007 509.998,41.1673 592.5,41.5C 592.667,123.834 592.5,206.167 592,288.5C 509.965,206.299 427.799,124.299 345.5,42.5 Z"/></g>
<g><path style="opacity:1" fill="#e5c2a9" d="M 639.5,50.5 C 639.5,52.5 639.5,54.5 639.5,56.5C 634.269,59.9685 630.602,58.8018 628.5,53C 630.965,46.9007 634.632,46.0674 639.5,50.5 Z"/></g>
<g><path style="opacity:1" fill="#e5c1a9" d="M 366.5,96.5 C 371.706,95.1199 374.706,96.9532 375.5,102C 373.821,107.258 370.654,108.424 366,105.5C 364.029,102.384 364.195,99.3839 366.5,96.5 Z"/></g>
<g><path style="opacity:1" fill="#e5c1a8" d="M 639.5,98.5 C 639.5,100.167 639.5,101.833 639.5,103.5C 637.282,106.387 634.282,107.221 630.5,106C 627.356,96.6536 630.356,94.1536 639.5,98.5 Z"/></g>
<g><path style="opacity:1" fill="#e5c1a8" d="M 367.5,144.5 C 375.021,144.39 377.021,147.557 373.5,154C 367.249,156.292 364.416,154.125 365,147.5C 365.698,146.309 366.531,145.309 367.5,144.5 Z"/></g>
<g><path style="opacity:1" fill="#e5c1a8" d="M 420.5,144.5 C 427.99,144.323 429.99,147.49 426.5,154C 421.698,156.266 418.698,154.766 417.5,149.5C 417.757,147.308 418.757,145.641 420.5,144.5 Z"/></g>
<g><path style="opacity:1" fill="#e5c1a8" d="M 639.5,147.5 C 639.5,148.833 639.5,150.167 639.5,151.5C 637.06,155.591 633.893,156.257 630,153.5C 627.575,150.118 628.075,147.285 631.5,145C 634.971,143.837 637.638,144.67 639.5,147.5 Z"/></g>
<g><path style="opacity:1" fill="#e5c1a8" d="M 367.5,192.5 C 375.767,192.866 377.433,196.366 372.5,203C 366.619,203.786 364.119,201.286 365,195.5C 365.698,194.309 366.531,193.309 367.5,192.5 Z"/></g>
<g><path style="opacity:1" fill="#e5c1a8" d="M 420.5,192.5 C 427.803,192.602 429.803,195.769 426.5,202C 421.439,204.789 418.439,203.289 417.5,197.5C 417.757,195.308 418.757,193.641 420.5,192.5 Z"/></g>
<g><path style="opacity:1" fill="#e5c1a8" d="M 472.5,192.5 C 480.231,192.037 482.564,195.204 479.5,202C 474.309,204.738 471.309,203.238 470.5,197.5C 470.437,195.486 471.103,193.819 472.5,192.5 Z"/></g>
<g><path style="opacity:1" fill="#e5c1a7" d="M 639.5,195.5 C 639.5,197.167 639.5,198.833 639.5,200.5C 634.101,205.065 630.434,203.898 628.5,197C 631.524,191.628 635.19,191.128 639.5,195.5 Z"/></g>
<g><path style="opacity:1" fill="#e5c1a7" d="M -0.5,208.5 C 4.65253,212.81 9.98586,216.977 15.5,221C 30.2579,229.863 46.2579,234.363 63.5,234.5C 63.5,246.833 63.5,259.167 63.5,271.5C 40.6225,272.044 19.2892,266.711 -0.5,255.5C -0.5,239.833 -0.5,224.167 -0.5,208.5 Z"/></g>
<g><path style="opacity:1" fill="#e5c1a8" d="M 186.5,263.5 C 185.167,310.162 184.5,357.162 184.5,404.5C 184.5,451.668 184.833,498.668 185.5,545.5C 201.764,552.03 207.264,563.696 202,580.5C 194.588,594.195 183.421,598.695 168.5,594C 157.938,589.089 152.605,580.755 152.5,569C 153.753,557.575 159.753,549.741 170.5,545.5C 171.262,544.372 171.929,543.205 172.5,542C 171.601,450.914 171.601,359.747 172.5,268.5C 172.449,266.9 172.116,265.4 171.5,264C 153.826,256.328 148.66,243.495 156,225.5C 165.757,212.888 177.924,210.055 192.5,217C 207.957,230.898 208.29,245.231 193.5,260C 191.423,261.705 189.09,262.872 186.5,263.5 Z"/></g>
<g><path style="opacity:1" fill="#e5c1a8" d="M 367.5,240.5 C 375.828,241.069 377.495,244.569 372.5,251C 366.714,251.881 364.214,249.381 365,243.5C 366.045,242.627 366.878,241.627 367.5,240.5 Z"/></g>
<g><path style="opacity:1" fill="#e5c1a7" d="M 420.5,240.5 C 427.865,240.653 429.865,243.82 426.5,250C 420.24,252.412 417.407,250.245 418,243.5C 419.045,242.627 419.878,241.627 420.5,240.5 Z"/></g>
<g><path style="opacity:1" fill="#e5c1a8" d="M 473.5,240.5 C 477.703,239.702 480.37,241.369 481.5,245.5C 479.507,252.129 476.007,253.129 471,248.5C 470.023,245.183 470.856,242.516 473.5,240.5 Z"/></g>
<g><path style="opacity:1" fill="#e5c1a8" d="M 526.5,240.5 C 534.294,241.252 535.961,244.752 531.5,251C 524.44,252.271 521.94,249.438 524,242.5C 524.995,241.934 525.828,241.267 526.5,240.5 Z"/></g>
<g><path style="opacity:1" fill="#e5c1a9" d="M 639.5,243.5 C 639.5,245.167 639.5,246.833 639.5,248.5C 637.484,251.144 634.817,251.977 631.5,251C 627.5,247.667 627.5,244.333 631.5,241C 634.817,240.023 637.484,240.856 639.5,243.5 Z"/></g>
<g><path style="opacity:1" fill="#f3e1d6" d="M 186.5,263.5 C 185.503,357.429 185.169,451.429 185.5,545.5C 184.833,498.668 184.5,451.668 184.5,404.5C 184.5,357.162 185.167,310.162 186.5,263.5 Z"/></g>
<g><path style="opacity:1" fill="#8883a4" d="M 274.5,345.5 C 302.402,342.369 323.569,352.702 338,376.5C 351.347,408.1 344.514,434.267 317.5,455C 285.88,471.134 258.714,465.634 236,438.5C 221.734,415.295 222.067,392.295 237,369.5C 246.543,356.816 259.043,348.816 274.5,345.5 Z"/></g>
<g><path style="opacity:1" fill="#e5c1a7" d="M 443.5,503.5 C 488.766,500.961 518.933,520.961 534,563.5C 542.092,604.3 528.592,635.467 493.5,657C 451.176,674.994 415.676,666.16 387,630.5C 364.684,589.756 370.184,553.256 403.5,521C 415.559,512.135 428.892,506.301 443.5,503.5 Z"/></g>
<g><path style="opacity:1" fill="#8883a4" d="M -0.5,852.5 C -0.5,819.5 -0.5,786.5 -0.5,753.5C 26.3943,714.692 63.0609,700.526 109.5,711C 152.396,726.408 175.396,756.908 178.5,802.5C 175.447,852.041 150.114,883.541 102.5,897C 58.6394,903.566 24.3061,888.733 -0.5,852.5 Z"/></g>
<g><path style="opacity:1" fill="#8a85a5" d="M 639.5,729.5 C 639.5,733.833 639.5,738.167 639.5,742.5C 537.166,742.333 434.833,742.5 332.5,743C 330.807,746.216 328.973,749.383 327,752.5C 313.333,765.833 299.667,765.833 286,752.5C 276.518,736.262 279.685,723.096 295.5,713C 312.364,707.507 324.364,712.84 331.5,729C 434.166,729.5 536.833,729.667 639.5,729.5 Z"/></g>
<g><path style="opacity:1" fill="#e5c1a7" d="M 258.5,856.5 C 288.846,854.415 310.346,867.081 323,894.5C 333.067,931.696 320.567,957.863 285.5,973C 257.402,980.301 234.568,972.468 217,949.5C 203.531,925.151 204.531,901.484 220,878.5C 230.325,866.593 243.159,859.259 258.5,856.5 Z"/></g>
<g><path style="opacity:1" fill="#e5c1a7" d="M 488.5,856.5 C 542.725,859.038 577.558,886.372 593,938.5C 602.544,994.575 582.377,1035.74 532.5,1062C 518.423,1067.68 503.756,1070.85 488.5,1071.5C 488.5,1060.83 488.5,1050.17 488.5,1039.5C 528.874,1036.29 553.708,1014.96 563,975.5C 566.57,938.159 551.737,910.992 518.5,894C 508.906,890.012 498.906,887.845 488.5,887.5C 488.5,877.167 488.5,866.833 488.5,856.5 Z"/></g>
<g><path style="opacity:1" fill="#8883a4" d="M 278.5,1291.5 C 200.668,1292.5 122.668,1292.83 44.5,1292.5C 44.3333,1214.5 44.5,1136.5 45,1058.5C 122.855,1136.3 200.688,1213.97 278.5,1291.5 Z"/></g>
<g><path style="opacity:1" fill="#8e89a7" d="M -0.5,1101.5 C -0.5,1099.83 -0.5,1098.17 -0.5,1096.5C 4.40679,1091.91 8.07346,1092.75 10.5,1099C 8.03474,1105.1 4.36807,1105.93 -0.5,1101.5 Z"/></g>
<g><path style="opacity:1" fill="#8c87a6" d="M 103.5,1093.5 C 109.157,1093.32 111.324,1095.99 110,1101.5C 105.371,1105.85 101.871,1105.02 99.5,1099C 100.036,1096.49 101.369,1094.66 103.5,1093.5 Z"/></g>
<g><path style="opacity:1" fill="#8d88a7" d="M 153.5,1093.5 C 160.112,1093.41 162.278,1096.41 160,1102.5C 156.729,1105.2 153.729,1104.86 151,1101.5C 150.018,1098.23 150.851,1095.56 153.5,1093.5 Z"/></g>
<g><path style="opacity:1" fill="#8d88a7" d="M 203.5,1093.5 C 210.241,1093.39 212.408,1096.39 210,1102.5C 205.401,1105.46 202.234,1104.29 200.5,1099C 201.124,1096.91 202.124,1095.08 203.5,1093.5 Z"/></g>
<g><path style="opacity:1" fill="#8c87a6" d="M 254.5,1093.5 C 260.555,1093.05 262.721,1095.72 261,1101.5C 258,1105.5 255,1105.5 252,1101.5C 250.837,1098.03 251.67,1095.36 254.5,1093.5 Z"/></g>
<g><path style="opacity:1" fill="#8c87a6" d="M -0.5,1146.5 C -0.5,1145.17 -0.5,1143.83 -0.5,1142.5C 4.40679,1137.91 8.07346,1138.75 10.5,1145C 7.42912,1151.31 3.76246,1151.81 -0.5,1146.5 Z"/></g>
<g><path style="opacity:1" fill="#8d87a7" d="M 153.5,1139.5 C 160.488,1139.65 162.488,1142.82 159.5,1149C 153.249,1151.29 150.416,1149.13 151,1142.5C 151.698,1141.31 152.531,1140.31 153.5,1139.5 Z"/></g>
<g><path style="opacity:1" fill="#8d88a7" d="M 203.5,1139.5 C 210.241,1139.39 212.408,1142.39 210,1148.5C 205.532,1151.12 202.366,1149.95 200.5,1145C 201.124,1142.91 202.124,1141.08 203.5,1139.5 Z"/></g>
<g><path style="opacity:1" fill="#8b86a6" d="M 253.5,1139.5 C 259.989,1138.63 262.489,1141.3 261,1147.5C 258,1151.5 255,1151.5 252,1147.5C 251.109,1144.5 251.609,1141.84 253.5,1139.5 Z"/></g>
<g><path style="opacity:1" fill="#8883a4" d="M 373.5,1141.5 C 386.167,1141.5 398.833,1141.5 411.5,1141.5C 414.365,1187.18 437.698,1216.35 481.5,1229C 519.146,1235.59 549.979,1224.09 574,1194.5C 585.011,1178.63 590.845,1161.3 591.5,1142.5C 604.154,1141.33 616.82,1141.17 629.5,1142C 626.428,1198.12 599.095,1237.79 547.5,1261C 489.902,1279.56 441.069,1266.4 401,1221.5C 382.79,1198.04 373.624,1171.37 373.5,1141.5 Z"/></g>
<g><path style="opacity:1" fill="#8b86a6" d="M -0.5,1192.5 C -0.5,1191.17 -0.5,1189.83 -0.5,1188.5C 1.36227,1185.67 4.02893,1184.84 7.5,1186C 11.5,1189 11.5,1192 7.5,1195C 4.02893,1196.16 1.36227,1195.33 -0.5,1192.5 Z"/></g>
<g><path style="opacity:1" fill="#8c87a6" d="M 203.5,1185.5 C 210.934,1185.2 212.934,1188.37 209.5,1195C 200.91,1195.61 198.91,1192.45 203.5,1185.5 Z"/></g>
<g><path style="opacity:1" fill="#8b86a6" d="M 253.5,1185.5 C 261.486,1185 263.486,1188.16 259.5,1195C 251.424,1195.8 249.424,1192.64 253.5,1185.5 Z"/></g>
<g><path style="opacity:1" fill="#8c86a6" d="M -0.5,1238.5 C -0.5,1237.17 -0.5,1235.83 -0.5,1234.5C 3.65675,1229.04 7.32342,1229.54 10.5,1236C 8.02257,1242.26 4.3559,1243.09 -0.5,1238.5 Z"/></g>
<g><path style="opacity:1" fill="#8c86a6" d="M 255.5,1230.5 C 261.691,1232.14 263.024,1235.64 259.5,1241C 253,1242.5 250.5,1240 252,1233.5C 253.145,1232.36 254.312,1231.36 255.5,1230.5 Z"/></g>
<g><path style="opacity:1" fill="#8e88a7" d="M -0.5,1284.5 C -0.5,1282.83 -0.5,1281.17 -0.5,1279.5C 4.36807,1275.07 8.03474,1275.9 10.5,1282C 8.07346,1288.25 4.40679,1289.09 -0.5,1284.5 Z"/></g>
<g><path style="opacity:1" fill="#b0aabc" d="M 278.5,1291.5 C 279.043,1291.56 279.376,1291.89 279.5,1292.5C 201.001,1293.83 122.668,1293.83 44.5,1292.5C 122.668,1292.83 200.668,1292.5 278.5,1291.5 Z"/></g>
<g><path style="opacity:1" fill="#8d88a7" d="M 6.5,1333.5 C 5.5,1333.5 4.5,1333.5 3.5,1333.5C 2.20498,1332.51 0.871651,1331.51 -0.5,1330.5C -0.5,1328.83 -0.5,1327.17 -0.5,1325.5C 1.08161,1324.12 2.91494,1323.12 5,1322.5C 11.5997,1325.44 12.0997,1329.11 6.5,1333.5 Z"/></g>
<g><path style="opacity:1" fill="#8e89a7" d="M 56.5,1333.5 C 55.5,1333.5 54.5,1333.5 53.5,1333.5C 47.8373,1328.8 48.504,1325.13 55.5,1322.5C 61.7352,1325.67 62.0685,1329.33 56.5,1333.5 Z"/></g>
<g><path style="opacity:1" fill="#8d88a7" d="M 107.5,1333.5 C 106.167,1333.5 104.833,1333.5 103.5,1333.5C 101.369,1332.34 100.036,1330.51 99.5,1328C 100.049,1324.62 102.049,1322.79 105.5,1322.5C 111.301,1325.17 111.968,1328.84 107.5,1333.5 Z"/></g>
<g><path style="opacity:1" fill="#8f89a8" d="M 157.5,1333.5 C 156.167,1333.5 154.833,1333.5 153.5,1333.5C 149.032,1328.84 149.699,1325.17 155.5,1322.5C 162.496,1325.13 163.163,1328.8 157.5,1333.5 Z"/></g>
<g><path style="opacity:1" fill="#8e89a8" d="M 207.5,1333.5 C 206.5,1333.5 205.5,1333.5 204.5,1333.5C 198.9,1329.11 199.4,1325.44 206,1322.5C 212.687,1325.42 213.187,1329.09 207.5,1333.5 Z"/></g>
<g><path style="opacity:1" fill="#8e88a7" d="M 258.5,1333.5 C 257.167,1333.5 255.833,1333.5 254.5,1333.5C 252.369,1332.34 251.036,1330.51 250.5,1328C 252.383,1322.55 255.716,1321.39 260.5,1324.5C 262.125,1328.05 261.458,1331.05 258.5,1333.5 Z"/></g>
<g><path style="opacity:1" fill="#f8eae1" d="M -0.5,1330.5 C 0.871651,1331.51 2.20498,1332.51 3.5,1333.5C 2.16667,1333.5 0.833333,1333.5 -0.5,1333.5C -0.5,1332.5 -0.5,1331.5 -0.5,1330.5 Z"/></g>
</svg>
